<svg xmlns="http://www.w3.org/2000/svg"
     viewBox="0 0 360 360">
  <g transform="translate(0,360) scale(0.1,-0.1)"
     fill="currentColor" stroke="none">
    <path d="M2115 2623 c-377 -33 -720 -187 -990 -445 l-102 -98 -110 104 c-246
    230 -347 318 -392 340 -179 91 -394 19 -483 -162 l-33 -67 0 -495 0 -495 33
    -67 c89 -181 304 -253 483 -163 49 26 70 43 332 287 l169 158 105 -100 c234
    -223 523 -368 846 -424 465 -81 943 46 1319 351 113 92 233 225 270 300 30 61
    33 76 33 153 0 120 -34 187 -163 322 -232 242 -527 405 -857 473 -139 29 -322
    40 -460 28z m295 -273 c234 -29 472 -124 660 -264 100 -75 247 -224 256 -260
    12 -50 -6 -80 -114 -186 -219 -216 -468 -339 -773 -384 -432 -64 -864 85
    -1173 404 -90 92 -96 102 -96 140 0 38 6 48 96 140 119 122 234 206 389 281
    240 116 496 160 755 129z m-2018 -63 c41 -18 475 -425 488 -458 10 -22 10 -36
    1 -57 -14 -33 -449 -441 -489 -459 -35 -15 -72 -7 -99 24 l-23 24 0 437 c0
    473 0 470 54 492 28 12 36 11 68 -3z"/>
    <path d="M2665 2051 c-123 -55 -96 -233 38 -248 161 -18 204 213 48 257 -45
    12 -39 13 -86 -9z"/>
  </g>
</svg>
